<svg width="1500" height="500" xmlns="http://www.w3.org/2000/svg">
  <defs>
    <linearGradient id="headerBg" x1="0%" y1="0%" x2="100%" y2="100%">
      <stop offset="0%" style="stop-color:#0f172a;stop-opacity:1" />
      <stop offset="30%" style="stop-color:#1e293b;stop-opacity:1" />
      <stop offset="70%" style="stop-color:#dc2626;stop-opacity:0.8" />
      <stop offset="100%" style="stop-color:#ea580c;stop-opacity:1" />
    </linearGradient>
    <linearGradient id="textGradient" x1="0%" y1="0%" x2="100%" y2="0%">
      <stop offset="0%" style="stop-color:#ffffff;stop-opacity:1" />
      <stop offset="100%" style="stop-color:#f8fafc;stop-opacity:0.9" />
    </linearGradient>
    <radialGradient id="iconGlow" cx="50%" cy="50%" r="50%">
      <stop offset="0%" style="stop-color:#ffffff;stop-opacity:0.3" />
      <stop offset="100%" style="stop-color:#ffffff;stop-opacity:0" />
    </radialGradient>
    <filter id="glow" x="-50%" y="-50%" width="200%" height="200%">
      <feGaussianBlur stdDeviation="3" result="coloredBlur"/>
      <feMerge> 
        <feMergeNode in="coloredBlur"/>
        <feMergeNode in="SourceGraphic"/>
      </feMerge>
    </filter>
    <pattern id="hexPattern" x="0" y="0" width="40" height="35" patternUnits="userSpaceOnUse">
      <polygon points="20,5 35,15 35,30 20,40 5,30 5,15" 
               fill="none" 
               stroke="#ffffff" 
               stroke-width="0.5" 
               opacity="0.08"/>
    </pattern>
  </defs>
  
  <!-- Background -->
  <rect width="1500" height="500" fill="url(#headerBg)"/>
  
  <!-- Hexagon Pattern Overlay -->
  <rect width="1500" height="500" fill="url(#hexPattern)"/>
  
  <!-- Security Shield Icon (Left) -->
  <g transform="translate(120, 350)">
    <circle cx="0" cy="0" r="60" fill="url(#iconGlow)"/>
    <path d="M0 -40 L35 -25 L35 15 Q35 35 0 50 Q-35 35 -35 15 L-35 -25 Z" 
          fill="#ffffff" 
          opacity="0.95" 
          filter="url(#glow)"/>
    <path d="M0 -25 L25 -15 L25 15 Q25 30 0 40 Q-25 30 -25 15 L-25 -15 Z" 
          fill="#10b981"/>
    <path d="M0 -10 L15 -5 L15 15 Q15 25 0 30 Q-15 25 -15 15 L-15 -5 Z" 
          fill="#ffffff"/>
    <!-- Checkmark in shield -->
    <path d="M-8 5 L-3 10 L8 -5" stroke="#10b981" stroke-width="3" fill="none" stroke-linecap="round"/>
    <!-- Security text -->
    <text x="0" y="75" font-family="Arial" font-size="12" font-weight="bold" 
          fill="#10b981" text-anchor="middle">SECURITY</text>
  </g>
  
  <!-- Anti-Scam Warning Icon -->
  <g transform="translate(300, 350)">
    <circle cx="0" cy="0" r="60" fill="url(#iconGlow)"/>
    <!-- Prohibition sign (circle with slash) -->
    <circle cx="0" cy="0" r="35" fill="#dc2626" opacity="0.9"/>
    <circle cx="0" cy="0" r="35" fill="none" stroke="#ffffff" stroke-width="4"/>
    <!-- Diagonal slash -->
    <line x1="-25" y1="-25" x2="25" y2="25" stroke="#ffffff" stroke-width="6" stroke-linecap="round"/>
    <!-- Dollar sign (representing scam) -->
    <text x="0" y="8" font-family="Arial" font-size="24" font-weight="bold" 
          fill="#ffffff" text-anchor="middle">$</text>
    <!-- Anti-scam text -->
    <text x="0" y="75" font-family="Arial" font-size="12" font-weight="bold" 
          fill="#dc2626" text-anchor="middle">ANTI-SCAM</text>
  </g>
  
  <!-- Main Title Area -->
  <text x="400" y="360" 
        font-family="Arial, sans-serif" 
        font-size="64" 
        font-weight="bold" 
        fill="url(#textGradient)" 
        filter="url(#glow)">
    DeSo Scam Report
  </text>
  
  <!-- Subtitle -->
  <text x="400" y="400" 
        font-family="Arial, sans-serif" 
        font-size="22" 
        fill="#cbd5e1" 
        opacity="0.9">
    Community-Driven Security • Blockchain Transparency • Human Investigation
  </text>
  
  <!-- Community People Icon -->
  <g transform="translate(1100, 350)">
    <circle cx="0" cy="0" r="60" fill="url(#iconGlow)"/>
    <!-- Three people silhouettes -->
    <g fill="#3b82f6" opacity="0.9">
      <!-- Person 1 -->
      <circle cx="-20" cy="-15" r="8"/>
      <path d="M-20 -5 Q-30 -5 -30 5 L-30 25 Q-30 30 -25 30 L-15 30 Q-10 30 -10 25 L-10 5 Q-10 -5 -20 -5"/>
      <!-- Person 2 (center, slightly forward) -->
      <circle cx="0" cy="-20" r="10"/>
      <path d="M0 -8 Q-12 -8 -12 5 L-12 30 Q-12 35 -6 35 L6 35 Q12 35 12 30 L12 5 Q12 -8 0 -8"/>
      <!-- Person 3 -->
      <circle cx="20" cy="-15" r="8"/>
      <path d="M20 -5 Q10 -5 10 5 L10 25 Q10 30 15 30 L25 30 Q30 30 30 25 L30 5 Q30 -5 20 -5"/>
    </g>
    <!-- Community text -->
    <text x="0" y="75" font-family="Arial" font-size="12" font-weight="bold" 
          fill="#3b82f6" text-anchor="middle">COMMUNITY</text>
  </g>
  
  <!-- Alert Bell Icon -->
  <g transform="translate(1280, 350)">
    <circle cx="0" cy="0" r="60" fill="url(#iconGlow)"/>
    <!-- Bell shape -->
    <path d="M0 -30 Q-15 -30 -25 -15 Q-25 0 -20 15 L20 15 Q25 0 25 -15 Q15 -30 0 -30" 
          fill="#fbbf24" opacity="0.9"/>
    <!-- Bell clapper -->
    <circle cx="0" cy="0" r="3" fill="#374151"/>
    <!-- Bell base -->
    <rect x="-20" y="15" width="40" height="8" rx="4" fill="#fbbf24"/>
    <!-- Alert waves -->
    <g stroke="#fbbf24" stroke-width="2" fill="none" opacity="0.6">
      <path d="M25 -20 Q35 -20 35 -10"/>
      <path d="M30 -25 Q45 -25 45 -5"/>
      <path d="M-25 -20 Q-35 -20 -35 -10"/>
      <path d="M-30 -25 Q-45 -25 -45 -5"/>
    </g>
    <!-- Alert text -->
    <text x="0" y="75" font-family="Arial" font-size="12" font-weight="bold" 
          fill="#fbbf24" text-anchor="middle">ALERTS</text>
  </g>
  
  <!-- Blockchain Network Visualization -->
  <g transform="translate(1400, 100)" opacity="0.7">
    <!-- Network nodes -->
    <circle cx="0" cy="0" r="6" fill="#22d3ee"/>
    <circle cx="25" cy="-20" r="5" fill="#3b82f6"/>
    <circle cx="40" cy="10" r="5" fill="#8b5cf6"/>
    <circle cx="15" cy="35" r="5" fill="#10b981"/>
    <circle cx="-20" cy="20" r="5" fill="#f59e0b"/>
    <!-- Network connections -->
    <g stroke="#ffffff" stroke-width="2" opacity="0.5">
      <line x1="6" y1="0" x2="20" y2="-18"/>
      <line x1="6" y1="5" x2="35" y2="5"/>
      <line x1="5" y1="8" x2="12" y2="30"/>
      <line x1="-6" y1="8" x2="-15" y2="15"/>
      <line x1="22" y1="-15" x2="35" y2="5"/>
    </g>
    <!-- Blockchain text -->
    <text x="10" y="60" font-family="Arial" font-size="10" 
          fill="#22d3ee" text-anchor="middle">BLOCKCHAIN</text>
  </g>
  
  <!-- Investigation Magnifying Glass -->
  <g transform="translate(480, 120)" opacity="0.6">
    <circle cx="0" cy="0" r="15" fill="none" stroke="#ffffff" stroke-width="3"/>
    <line x1="12" y1="12" x2="25" y2="25" stroke="#ffffff" stroke-width="3" stroke-linecap="round"/>
    <!-- Magnified content (document with checkmark) -->
    <rect x="-8" y="-8" width="16" height="12" fill="#ffffff" opacity="0.8" rx="1"/>
    <path d="M-4 -2 L-1 1 L4 -6" stroke="#10b981" stroke-width="1.5" fill="none"/>
  </g>
  
  <!-- Report Document Icon -->
  <g transform="translate(950, 120)" opacity="0.6">
    <!-- Document -->
    <rect x="-8" y="-12" width="16" height="20" fill="#ffffff" rx="2"/>
    <!-- Document lines -->
    <line x1="-5" y1="-8" x2="5" y2="-8" stroke="#374151" stroke-width="1"/>
    <line x1="-5" y1="-4" x2="3" y2="-4" stroke="#374151" stroke-width="1"/>
    <line x1="-5" y1="0" x2="5" y2="0" stroke="#374151" stroke-width="1"/>
    <line x1="-5" y1="4" x2="2" y2="4" stroke="#374151" stroke-width="1"/>
    <!-- Warning symbol on document -->
    <circle cx="0" cy="-2" r="4" fill="#dc2626"/>
    <text x="0" y="1" font-family="Arial" font-size="6" fill="#ffffff" text-anchor="middle">!</text>
  </g>
  
  <!-- Bottom gradient accent -->
  <rect x="0" y="470" width="1500" height="30" fill="url(#textGradient)" opacity="0.2"/>
  
  <!-- Connecting lines between icons -->
  <g stroke="#ffffff" stroke-width="1" opacity="0.2" stroke-dasharray="5,5">
    <line x1="180" y1="350" x2="240" y2="350"/>
    <line x1="360" y1="350" x2="1040" y2="350"/>
    <line x1="1160" y1="350" x2="1220" y2="350"/>
  </g>
</svg>
