<svg width="32" height="32" viewBox="0 0 32 32" xmlns="http://www.w3.org/2000/svg">
  <defs>
    <linearGradient id="miniShieldGradient" x1="0%" y1="0%" x2="100%" y2="100%">
      <stop offset="0%" style="stop-color:#ef4444;stop-opacity:1" />
      <stop offset="100%" style="stop-color:#dc2626;stop-opacity:1" />
    </linearGradient>
  </defs>
  
  <!-- Background -->
  <rect width="32" height="32" rx="6" fill="#1f2937"/>
  
  <!-- Shield -->
  <path d="M16 3 L12 6 Q12 7 12 9 L12 20 Q12 22 16 25 Q20 22 20 20 L20 9 Q20 7 20 6 Z" 
        fill="url(#miniShieldGradient)" 
        stroke="#b91c1c" 
        stroke-width="0.5"/>
  
  <!-- Warning Symbol -->
  <path d="M16 10 L18 15 L14 15 Z" fill="#fbbf24"/>
  <rect x="15.2" y="11" width="1.6" height="3" fill="#1f2937" rx="0.3"/>
  <circle cx="16" cy="14.2" r="0.4" fill="#1f2937"/>
  
  <!-- Alert Ring -->
  <circle cx="16" cy="16" r="14" fill="none" stroke="#ef4444" stroke-width="1" stroke-dasharray="3,2" opacity="0.4"/>
</svg>" height="512" viewBox="0 0 512 512" fill="none" xmlns="http://www.w3.org/2000/svg">
  <!-- Blue circular background -->
  <circle cx="256" cy="256" r="256" fill="#169CFE"/>
  <!-- Main white circular stroke -->
  <circle cx="256" cy="256" r="170" stroke="#fff" stroke-width="28" fill="none"/>
  <!-- Top-right node -->
  <circle cx="370" cy="142" r="36" fill="#fff"/>
  <!-- Bottom-left node -->
  <circle cx="142" cy="370" r="36" fill="#fff"/>
  <!-- Center node -->
  <circle cx="256" cy="256" r="36" fill="#fff"/>
  <!-- Connections: center to top-right, center to bottom-left -->
  <line x1="256" y1="256" x2="370" y2="142" stroke="#fff" stroke-width="24" stroke-linecap="round"/>
  <line x1="256" y1="256" x2="142" y2="370" stroke="#fff" stroke-width="24" stroke-linecap="round"/>
</svg>
